<svg width="35" height="35" viewBox="0 0 35 35" fill="none" xmlns="http://www.w3.org/2000/svg">
<path d="M14.6275 13.0807C14.2004 12.6536 13.5079 12.6536 13.0807 13.0807C12.6536 13.5078 12.6536 14.2004 13.0807 14.6275L15.9532 17.5L13.0808 20.3724C12.6536 20.7995 12.6536 21.492 13.0808 21.9192C13.5079 22.3463 14.2004 22.3463 14.6276 21.9192L17.5 19.0467L20.3724 21.9191C20.7995 22.3463 21.492 22.3463 21.9192 21.9191C22.3463 21.492 22.3463 20.7995 21.9192 20.3723L19.0468 17.5L21.9192 14.6275C22.3463 14.2004 22.3463 13.5079 21.9192 13.0807C21.4921 12.6536 20.7995 12.6536 20.3724 13.0807L17.5 15.9532L14.6275 13.0807Z" fill="#CBCBCB"/>
<path fill-rule="evenodd" clip-rule="evenodd" d="M17.5 1.82288C8.84181 1.82288 1.82294 8.84175 1.82294 17.5C1.82294 26.1582 8.84181 33.177 17.5 33.177C26.1582 33.177 33.1771 26.1582 33.1771 17.5C33.1771 8.84175 26.1582 1.82288 17.5 1.82288ZM4.01044 17.5C4.01044 10.0499 10.0499 4.01038 17.5 4.01038C24.9501 4.01038 30.9896 10.0499 30.9896 17.5C30.9896 24.95 24.9501 30.9895 17.5 30.9895C10.0499 30.9895 4.01044 24.95 4.01044 17.5Z" fill="#CBCBCB"/>
</svg>
